<?xml version="1.0" encoding="UTF-8" standalone="no"?>
<!-- Created with Inkscape (http://www.inkscape.org/) -->

<svg
   xmlns:dc="http://purl.org/dc/elements/1.1/"
   xmlns:cc="http://creativecommons.org/ns#"
   xmlns:rdf="http://www.w3.org/1999/02/22-rdf-syntax-ns#"
   xmlns:svg="http://www.w3.org/2000/svg"
   xmlns="http://www.w3.org/2000/svg"
   xmlns:sodipodi="http://sodipodi.sourceforge.net/DTD/sodipodi-0.dtd"
   xmlns:inkscape="http://www.inkscape.org/namespaces/inkscape"
   width="44.982288mm"
   height="28.232819mm"
   viewBox="0 0 44.982289 28.232818"
   version="1.1"
   id="svg8"
   inkscape:version="0.92.1 r15371"
   sodipodi:docname="logo_cardiomax.svg">
  <defs
     id="defs2" />
  <sodipodi:namedview
     id="base"
     pagecolor="#ffffff"
     bordercolor="#666666"
     borderopacity="1.0"
     inkscape:pageopacity="0.0"
     inkscape:pageshadow="2"
     inkscape:zoom="0.7"
     inkscape:cx="-100.74836"
     inkscape:cy="-154.76346"
     inkscape:document-units="mm"
     inkscape:current-layer="layer1"
     showgrid="false"
     inkscape:window-width="1920"
     inkscape:window-height="1017"
     inkscape:window-x="1672"
     inkscape:window-y="-8"
     inkscape:window-maximized="1"
     fit-margin-top="0"
     fit-margin-left="0"
     fit-margin-right="0"
     fit-margin-bottom="0" />
  <metadata
     id="metadata5">
    <rdf:RDF>
      <cc:Work
         rdf:about="">
        <dc:format>image/svg+xml</dc:format>
        <dc:type
           rdf:resource="http://purl.org/dc/dcmitype/StillImage" />
        <dc:title></dc:title>
      </cc:Work>
    </rdf:RDF>
  </metadata>
  <g
     inkscape:label="Layer 1"
     inkscape:groupmode="layer"
     id="layer1"
     transform="translate(-69.472333,-96.38322)">
    <path
       style="fill:#ff0000;stroke-width:0.01733837"
       d="m 84.563006,96.383901 c -0.43718,-5.95e-4 -0.879432,0.02935 -1.322932,0.08208 -0.03672,0.0098 -0.108825,0.02605 -0.193726,0.04437 0.0069,8.89e-4 0.01616,0.0036 0.02809,0.0071 -0.01033,0.01805 -0.0417,0.0044 -0.04559,-0.0027 -0.114419,0.02463 -0.208392,0.04482 -0.321599,0.06865 0.0036,0.0018 0.0066,0.0027 0.01135,0.0053 -0.0085,0.02054 -0.02652,0.0094 -0.03223,-5.96e-4 -0.02241,0.0044 -0.03235,0.0071 -0.05204,0.01138 0.0044,0.0018 0.0086,0.0036 0.01489,0.0062 -0.0092,0.02214 -0.02926,0.008 -0.03316,-0.0027 -0.06214,0.01334 -0.165387,0.03459 -0.174385,0.03779 -0.161079,0.0136 -0.4472,0.114692 -0.731465,0.227961 0.0077,2.4e-4 0.01595,8.9e-4 0.02486,0.0044 -0.07315,0.0546 -0.08801,0.03343 -0.07123,0.01369 -0.03894,0.01574 -0.07591,0.03015 -0.114209,0.04606 -6.84e-4,0.0027 -0.0013,0.0062 -0.0053,0.01263 -0.05997,0.03432 -0.05315,0.0209 -0.03439,0.0044 -0.01653,0.0071 -0.03177,0.01352 -0.04805,0.02036 -0.0011,0.0027 -0.0011,0.0044 -0.0043,0.0099 -0.05501,0.03148 -0.05334,0.02259 -0.03838,0.008 -0.065,0.02774 -0.116536,0.04944 -0.174232,0.07478 -0.0039,0.0036 -0.0053,0.0062 -0.01274,0.01227 -0.07146,0.03584 -0.068,0.02908 -0.04989,0.01538 -0.288185,0.127853 -0.448397,0.204246 -0.110833,0.0289 -1.62641,0.739575 -2.934059,2.060319 -3.705219,3.627394 -0.143182,0.39573 -0.169415,0.3259 -0.287521,0.74098 -0.124055,0.28015 -0.165709,0.42419 -0.225196,0.67527 0.0013,-8.8e-4 0.002,-0.002 0.0038,-0.003 0.01649,0.0505 -0.0024,0.0366 -0.008,0.0198 -0.0042,0.0177 -0.008,0.0326 -0.01243,0.0516 0.0012,-5.9e-4 0.0017,-0.002 0.0032,-0.002 0.01618,0.0495 -0.0016,0.0371 -0.0076,0.0207 -0.0042,0.0181 -0.0075,0.0305 -0.01198,0.0501 8.89e-4,-3e-4 0.0012,-8.8e-4 0.0023,-0.002 0.01575,0.0482 -7.12e-4,0.0375 -0.0072,0.022 -0.003,0.0131 -0.0082,0.0345 -0.01136,0.0482 5.35e-4,-1.7e-4 6.24e-4,-6e-4 0.0012,-8.9e-4 0.01525,0.0467 3.27e-4,0.0381 -0.0066,0.0233 -0.0031,0.0133 -0.0076,0.0319 -0.0109,0.0459 h 1.54e-4 c 0.01473,0.0451 0.0012,0.0386 -0.006,0.0249 -0.0034,0.0146 -0.0075,0.0314 -0.01105,0.0467 0.01626,0.0574 3.57e-4,0.0461 -0.0063,0.0264 -0.0047,0.0201 -0.009,0.0385 -0.01412,0.0598 0.0011,-6e-4 0.0014,-0.002 0.0028,-0.002 0.01591,0.0486 -9.79e-4,0.0373 -0.0074,0.0215 -0.01122,0.047 -0.01745,0.0755 -0.03055,0.12909 -0.13707,0.49524 -0.185837,1.73518 -0.146139,2.19332 0.025,0.77851 0.06992,1.52734 0.192499,2.23324 -1.43e-4,-0.007 0.0016,-0.0144 0.0084,-0.0182 0.01996,0.0678 -0.0029,0.0476 -0.0076,0.0243 0.0074,0.0424 0.01412,0.0853 0.02211,0.12741 0.004,0.025 0.0082,0.0459 0.01213,0.0703 7.43e-4,-0.005 0.0026,-0.0108 0.008,-0.014 0.01801,0.0611 0.0018,0.0499 -0.0052,0.0302 0.0049,0.0297 0.0099,0.057 0.01473,0.086 0.0011,-0.005 0.003,-0.009 0.0078,-0.0121 0.01716,0.0582 0.0032,0.0506 -0.0043,0.0328 0.0043,0.025 0.0086,0.0502 0.01289,0.0746 -7.73e-4,-0.008 0.0012,-0.0164 0.0087,-0.0207 0.0211,0.0716 -0.0064,0.0455 -0.0087,0.0207 0.01224,0.0702 0.02445,0.1433 0.03715,0.20969 h 30.294817 c 3e-4,-0.002 8.9e-4,-0.004 8.9e-4,-0.005 -0.008,-0.006 -0.0178,-0.029 8.9e-4,-0.0332 0.002,0.005 0.003,0.009 0.004,0.0132 0.0116,-0.0533 0.0235,-0.10512 0.0345,-0.15889 -0.008,-0.003 -0.0222,-0.0355 -0.004,-0.0461 0.004,0.0144 0.006,0.0238 0.007,0.0311 0.004,-0.0241 0.009,-0.0479 0.014,-0.072 -0.008,-0.003 -0.022,-0.0354 -0.004,-0.0459 0.004,0.0128 0.005,0.0221 0.007,0.0292 0.006,-0.03 0.0119,-0.0598 0.0175,-0.0896 -0.004,0.0128 -0.0289,-0.031 -0.007,-0.0436 0.006,0.0222 0.008,0.0345 0.007,0.0408 0.0274,-0.14706 0.0506,-0.29133 0.0662,-0.42644 -0.007,-8.9e-4 -0.0216,-0.0423 -0.004,-0.0562 0.005,0.022 0.005,0.0311 0.005,0.0397 0.006,-0.0538 0.0112,-0.10682 0.0144,-0.15704 0.004,-0.0359 0.008,-0.0734 0.0123,-0.10945 -0.005,-0.0158 -0.009,-0.04 0.003,-0.051 0.002,0.007 5.9e-4,0.007 0.002,0.0132 0.11486,-0.98115 0.18745,-2.05154 0.0918,-3.11375 -0.005,0.0114 -0.0266,-0.053 -0.007,-0.0726 6e-4,0.004 6e-4,0.004 8.9e-4,0.007 -0.0381,-0.39447 -0.0994,-0.78725 -0.19112,-1.17326 -0.1597,-0.53494 -0.2397,-0.78057 -0.3985,-1.13304 -0.004,0.008 -0.0444,-0.0709 -0.026,-0.0565 -0.024,-0.0523 -0.0438,-0.0984 -0.0721,-0.1575 -0.006,-0.0195 -0.015,-0.0416 -0.0226,-0.0625 -0.006,0.006 -0.41097,-0.81128 -0.0995,-0.21828 0.0562,0.11844 0.0831,0.17744 0.094,0.20324 -0.2378,-0.63711 -1.07801,-1.870531 -1.82183,-2.491582 -0.14349,-0.172411 -0.53329,-0.444148 -0.90555,-0.682807 0.0827,0.05558 0.18248,0.125167 0.30119,0.213529 -0.42962,-0.267682 -0.55039,-0.362278 -0.48847,-0.331119 -0.0545,-0.03397 -0.10677,-0.06687 -0.15735,-0.09763 0.009,0.0062 0.0185,0.01209 0.0296,0.02054 -0.10998,-0.02979 -0.1278,-0.07309 -0.0686,-0.04402 -0.38428,-0.232371 -0.61001,-0.35022 -0.20893,-0.112522 -0.18335,-0.101914 -0.36781,-0.192819 -0.55323,-0.276006 0.0804,0.06927 -0.0838,-0.03023 -0.0626,-0.0281 -0.0563,-0.02463 -0.11271,-0.04802 -0.16916,-0.07105 0.002,8.89e-4 0.003,8.89e-4 0.004,0.0027 0.0313,0.0498 -0.0496,-0.01103 -0.0471,-0.01983 -0.0173,-0.0071 -0.0345,-0.01449 -0.0519,-0.02134 0.004,0.0027 0.007,0.0036 0.0123,0.0062 0.0313,0.0498 -0.0496,-0.01103 -0.0471,-0.01983 -0.0333,-0.01289 -0.0667,-0.0249 -0.10009,-0.03735 0.004,0.0027 0.005,0.0036 0.009,0.0062 -0.0293,0.02988 -0.0651,-0.0089 -0.0697,-0.02943 -0.20782,-0.07505 -0.41695,-0.140159 -0.62738,-0.197559 0.004,0.0018 0.009,0.0036 0.0163,0.0071 -0.0135,0.03263 -0.0514,-0.01369 -0.0239,-0.0091 -0.0297,-0.008 -0.0593,-0.01681 -0.089,-0.02454 0.0263,0.0036 -0.0596,-0.01467 -0.17101,-0.0385 0.003,8.89e-4 0.004,0.0018 0.006,0.0027 -0.0114,0.02748 -0.04,-0.0018 -0.0326,-0.008 -0.0127,-0.0027 -0.0242,-0.0053 -0.0376,-0.008 -0.0107,0.02276 -0.0343,0.0018 -0.0333,-0.0071 -0.20838,-0.04428 -0.46551,-0.09869 -0.5296,-0.115288 -0.829977,-0.09965 -1.653201,-0.115252 -2.450753,-0.0053 0.0089,5.96e-4 0.01423,2.67e-4 0.03228,0.0044 -0.01245,0.01618 -0.04606,0.0062 -0.05362,-8.89e-4 -0.06438,0.0091 -0.128511,0.01876 -0.192499,0.02943 0.0071,8.89e-4 0.01645,0.0027 0.02961,0.0071 -0.01067,0.01876 -0.04428,0.0036 -0.04624,-0.0036 -0.02854,0.0044 -0.05718,0.0094 -0.08563,0.01458 0.0071,8.9e-4 0.0161,0.0036 0.02792,0.0071 -0.01049,0.01841 -0.04295,0.0044 -0.04588,-0.0036 -0.104653,0.0193 -0.208638,0.04135 -0.312241,0.06536 0.0053,0.0018 0.01138,0.0044 0.01965,0.0089 -0.01,0.02392 -0.03317,0.0044 -0.03406,-0.0053 -0.01912,0.0044 -0.03824,0.0089 -0.05727,0.01352 0.0053,8.89e-4 0.01218,0.0036 0.02196,0.0091 -0.01032,0.02481 -0.03486,0.0036 -0.03406,-0.0062 -0.01938,0.0044 -0.03886,0.0093 -0.05815,0.01432 0.0053,8.89e-4 0.01227,0.0036 0.02285,0.0092 -0.01031,0.02481 -0.03486,0.0036 -0.03406,-0.0062 -0.01841,0.0044 -0.03672,0.0099 -0.05513,0.01476 0.0053,0.0018 0.01138,0.0044 0.01983,0.0089 -0.0099,0.02374 -0.03281,0.0053 -0.03406,-0.0053 -0.0345,0.0092 -0.06909,0.01796 -0.103461,0.02774 -0.0273,0.0071 -0.04944,0.01334 -0.07478,0.0201 0.0053,0.0018 0.01209,0.0036 0.02161,0.0089 -0.01005,0.02428 -0.03397,0.0044 -0.03423,-0.0053 -0.473173,0.127221 -0.611776,0.213823 -0.897411,0.319445 -0.02106,0.0089 -0.04182,0.01761 -0.06278,0.02623 0.002,0.0018 -0.0039,0.0089 -0.0238,0.02579 -0.13014,0.06536 -0.03945,0.0044 0.003,-0.01707 -1.792385,0.749703 -3.217264,2.151526 -4.27412,3.813748 0.04101,-0.004 0.07453,0.002 0.02641,0.0307 -0.151018,0.002 -0.104333,-0.019 -0.04789,-0.0277 -0.246782,-0.37582 -0.512474,-0.75255 -0.7987,-1.113389 0.02349,0.03317 0.04449,0.06465 0.06017,0.09257 -0.05653,-0.04153 -0.684283,-0.812865 -0.978002,-1.061198 -1.176011,-1.05612 0.08317,0.0062 0.70798,0.7112 -0.467046,-0.554857 -0.986644,-1.059081 -1.567163,-1.443892 -0.447643,-0.457683 -1.515687,-0.923253 -1.983015,-1.13182 -0.250232,-0.06313 -0.438008,-0.156343 -0.690479,-0.217824 -0.01094,0.0225 -0.03487,0.0018 -0.03301,-0.008 -0.01165,-0.0027 -0.02259,-0.0053 -0.03454,-0.008 -0.04117,-0.01245 -0.08264,-0.02356 -0.124034,-0.03512 -0.01138,0.02063 -0.03445,-2.94e-4 -0.03193,-0.0091 -0.01199,-0.0036 -0.0239,-0.0071 -0.03592,-0.01014 -0.01142,0.02632 -0.03891,-8.9e-4 -0.03239,-0.008 -0.01219,-0.0036 -0.02448,-0.0062 -0.03669,-0.0091 -0.01122,0.02668 -0.03884,-3.03e-4 -0.03285,-0.008 C 85.800479,96.449572 85.185969,96.385468 84.561,96.38465 Z m 1.833192,0.213067 c 0.01094,0.0027 0.02193,0.0053 0.03285,0.008 -0.02128,-0.01129 -0.03015,-0.01147 -0.03285,-0.008 z m 0.06954,0.01716 c 0.0108,0.0027 0.02161,0.0053 0.03239,0.008 7.2e-5,-1.69e-4 2.36e-4,-1.42e-4 2.97e-4,-3.02e-4 -0.02092,-0.01112 -0.02981,-0.01138 -0.0327,-0.008 z m 0.06831,0.01859 c 0.01067,0.0027 0.02128,0.0062 0.03193,0.0091 5.04e-4,-8.89e-4 0.0012,-8.89e-4 0.0017,-0.0018 -0.02359,-0.01254 -0.03224,-0.01165 -0.03362,-0.0071 z m 0.190502,0.05237 c 0.01112,0.0027 0.02214,0.0053 0.03301,0.008 2.68e-4,-5.87e-4 6.83e-4,-5.87e-4 8.9e-4,-8.89e-4 -0.02413,-0.01281 -0.03289,-0.01147 -0.03392,-0.0062 z m 4.273662,2.801219 c 0.07124,0.08465 0.141024,0.170668 0.209846,0.25743 -0.05334,-0.07532 -0.126676,-0.163582 -0.209846,-0.25743 z m 1.008547,1.370823 c 0.0032,0.005 0.0068,0.01 0.01,0.0148 0.0037,-0.006 0.0077,-0.0117 0.01152,-0.0176 -0.0072,5.9e-4 -0.01429,0.002 -0.02151,0.003 z m 4.295612,-3.816664 c 0.0069,-0.0027 0.01378,-0.0062 0.02074,-0.0089 -0.0015,-8.89e-4 -0.01152,0.0044 -0.02074,0.0089 z m 0.980917,-0.354453 c 0.0044,-8.9e-4 0.008,-0.0027 0.01263,-0.0036 -0.009,-0.0027 -0.01263,-3.03e-4 -0.01263,0.0036 z m 0.190809,-0.05131 c 0.0044,-8.9e-4 0.0095,-0.0027 0.01432,-0.0036 -0.01112,-0.0036 -0.01485,-5.87e-4 -0.01432,0.0036 z m 0.06936,-0.01859 c 0.0036,-8.89e-4 0.0071,-0.0018 0.0112,-0.0027 -0.0071,-0.0018 -0.01094,-8.9e-5 -0.0112,0.0027 z m 0.06936,-0.01734 c 0.0036,-8.89e-4 0.008,-0.0018 0.01209,-0.0027 -0.008,-0.0018 -0.01183,-3.02e-4 -0.01209,0.0027 z m 0.06936,-0.01645 c 0.0044,-8.89e-4 0.0096,-0.0027 0.01441,-0.0036 -0.01112,-0.0036 -0.01485,-8.89e-4 -0.01441,0.0036 z m 0.326665,-0.06874 c 0.0062,-8.89e-4 0.01174,-0.0018 0.01761,-0.0036 -0.01494,-0.0027 -0.01894,-2.32e-4 -0.01761,0.0036 z m 0.103621,-0.01778 c 0.0053,-8.89e-4 0.01103,-0.0018 0.01654,-0.0027 -0.01272,-0.0018 -0.01734,-1.33e-4 -0.01654,0.0027 z m 0.209074,-0.03237 c 0.0071,-8.89e-4 0.01423,-0.0018 0.02134,-0.0027 -0.01574,-8.9e-4 -0.02508,-5.96e-4 -0.02134,0.0027 z m 3.001703,0.117902 c 0.0124,0.0027 0.0213,0.0044 0.0333,0.0071 2.1e-4,-5.87e-4 6e-4,-5.87e-4 8.9e-4,-8.89e-4 -0.0248,-0.01316 -0.0335,-0.01165 -0.0341,-0.0062 z m 0.071,0.01521 c 0.009,0.0018 0.0176,0.0036 0.026,0.0053 -0.0151,-0.0071 -0.0232,-0.008 -0.026,-0.0053 z m 0.28598,0.06865 c 0.003,5.87e-4 0.005,0.0018 0.008,0.0018 -0.003,-8.89e-4 -0.005,-0.0018 -0.008,-0.0018 z m 0.63506,0.19971 c 0.0204,0.0071 0.0408,0.01529 0.0613,0.02285 -0.0496,-0.04206 -0.0646,-0.03833 -0.0613,-0.02285 z m 0.16134,0.0602 c 0.0117,0.0044 0.0233,0.0089 0.0349,0.01334 -0.0231,-0.01236 -0.0341,-0.01609 -0.0349,-0.01334 z m 0.0867,0.03468 c 0.014,0.0053 0.0281,0.01165 0.0422,0.01734 -0.0296,-0.01654 -0.0413,-0.02045 -0.0422,-0.01734 z m 0.21138,0.08839 c 0.0209,0.0092 0.0417,0.01876 0.0626,0.0281 -8.9e-4,-5.86e-4 -6e-4,-5.86e-4 -0.002,-0.0018 -0.0401,-0.0201 -0.0555,-0.02614 -0.0611,-0.02668 z m 0.8248,0.416627 c 0.0139,0.008 0.0246,0.01476 0.039,0.02348 -0.0153,-0.01023 -0.0285,-0.01832 -0.039,-0.02348 z m 0.19634,0.121112 c 0.0618,0.03842 0.12301,0.07639 0.18728,0.117591 -0.0948,-0.06376 -0.15931,-0.103505 -0.18728,-0.117591 z m 2.91465,3.291986 c 0.002,0.005 0.004,0.01 0.005,0.015 2.9e-4,-2.9e-4 -0.002,-0.006 -0.005,-0.015 z m 0.10024,0.23502 c 0.009,0.0188 0.0178,0.0384 0.026,0.0565 8.9e-4,-0.003 -5.8e-4,-0.0126 -0.0109,-0.0404 -0.007,-0.009 -0.0118,-0.0136 -0.015,-0.0161 z m 0.61557,2.36278 c 0.002,0.0217 0.004,0.0434 0.005,0.0651 0.003,-0.004 0.002,-0.0233 -0.005,-0.0651 z m -0.0862,3.17885 c -0.002,0.0125 -0.003,0.0252 -0.004,0.0378 0.006,0.0194 0.014,0.0188 0.004,-0.0378 z m -0.031,0.30424 c -6e-4,0.005 -8.9e-4,0.0108 -0.002,0.0165 0.002,2.9e-4 0.002,-0.008 0.002,-0.0165 z m -0.0677,0.44288 c -1.8e-4,8.9e-4 -2.9e-4,0.002 -5.9e-4,0.003 2.5e-4,-8.9e-4 3e-4,-0.002 5.9e-4,-0.003 z m -0.018,0.0924 c -8.9e-4,0.005 -0.002,0.0111 -0.004,0.0167 0.004,8.9e-4 0.005,-0.003 0.004,-0.0167 z m -0.0172,0.0887 c -8.9e-4,0.005 -0.002,0.01 -0.004,0.0148 0.003,8.9e-4 0.004,-0.004 0.004,-0.0148 z m -0.0378,0.17378 c -0.002,0.007 -0.003,0.0132 -0.004,0.0199 0.005,0.004 0.009,6e-4 0.004,-0.0199 z m -0.005,0.0255 c -0.004,0.0194 -0.009,0.0388 -0.0127,0.0581 0.007,0.0254 0.002,0.0284 -0.004,0.0221 -0.004,0.0175 -0.008,0.0355 -0.0116,0.0528 0.007,0.0315 8.9e-4,0.0336 -0.005,0.0243 -0.0109,0.0483 -0.0208,0.0928 -0.0316,0.13953 0.01,0.0327 0.002,0.0329 -0.005,0.0235 -0.004,0.0166 -0.007,0.0321 -0.0112,0.0486 0.008,0.028 0.002,0.0303 -0.005,0.0228 -0.004,0.0165 -0.008,0.0331 -0.0114,0.0493 0.006,0.0238 8.9e-4,0.0269 -0.004,0.0211 -0.009,0.0386 -0.0189,0.0819 -0.0273,0.11835 -0.005,0.025 -0.012,0.0502 -0.0181,0.0754 0.003,0.015 2.8e-4,0.0189 -0.004,0.0165 -0.004,0.0181 -0.008,0.036 -0.0131,0.0541 0.003,0.0141 -10e-6,0.0174 -0.004,0.0152 -0.0156,0.0587 -0.0331,0.11778 -0.051,0.17699 -0.002,0.0325 -0.008,0.047 -0.0152,0.0485 -0.016,0.0518 -0.0318,0.10375 -0.0488,0.15596 h 7.57422 v -1.12276 z m -0.28552,1.12275 H 77.163465 c 0.05475,0.24607 0.181194,0.59755 0.31116,0.89495 0.0032,0.003 0.0075,0.007 0.01458,0.0158 0.01129,0.0307 0.01329,0.0413 0.01105,0.0421 0.01048,0.0233 0.02091,0.0464 0.03132,0.0687 0.0029,0.003 0.005,0.004 0.0097,0.0106 0.0052,0.0144 0.008,0.0233 0.0098,0.0301 0.01257,0.0263 0.02533,0.0539 0.0376,0.0783 0.01699,0.046 0.03651,0.0922 0.0548,0.13831 0.0055,0.009 0.0095,0.0147 0.01904,0.031 0.04705,0.10472 0.02974,0.0771 0.0066,0.034 0.565906,1.38273 1.694067,2.80769 2.792769,3.93794 3.358415,3.34958 7.115156,6.26658 10.56948,9.51488 -0.05037,-0.0588 -0.100485,-0.11724 -0.150435,-0.17439 0.181439,0.17113 0.362705,0.34253 0.542189,0.51579 0.316849,0.37524 0.631217,0.40118 0.944534,0.24438 -0.02795,0.027 -0.05637,0.0536 -0.08427,0.0807 -0.162192,0.14215 -0.333959,0.13418 -0.510262,0.041 0.03416,0.0331 0.06892,0.0655 0.103005,0.0987 l 0.137697,0.10838 c 0.124537,-0.11208 0.248537,-0.22487 0.372562,-0.33757 0.296325,-0.15518 0.591696,-0.47265 0.887275,-0.81205 0.966338,-0.88946 1.929409,-1.78354 2.922484,-2.64326 0.164964,-0.15168 0.331627,-0.30181 0.498753,-0.45162 -1.094222,0.94925 -2.181937,1.90569 -3.243627,2.89056 0.348491,-0.40408 0.697491,-0.80107 1.049074,-0.96311 2.04378,-1.91485 4.239915,-3.67353 6.328207,-5.54317 -0.59812,0.53948 -1.202715,1.07206 -1.810161,1.60155 1.638541,-1.39627 3.276931,-2.79706 4.729731,-4.37314 -0.004,0.004 -0.0104,0.0102 -0.0146,0.0138 -0.50062,0.50654 -1.01162,1.00174 -1.52924,1.48995 0.80301,-0.76548 1.58014,-1.5576 2.31475,-2.39334 0.46096,-0.56727 0.43303,-0.51983 0.23594,-0.27279 0.10382,-0.12807 0.2066,-0.25722 0.30762,-0.38791 -0.002,-0.0145 0.15995,-0.28241 0.11529,-0.16196 -0.0313,0.0477 -0.052,0.0783 -0.0697,0.10378 0.0805,-0.10484 0.15985,-0.21053 0.2384,-0.31715 0.43921,-0.60083 0.7603,-1.22075 1.03879,-1.83902 -0.0408,0.0913 -0.0598,0.0386 0.0207,-0.0542 -0.006,0.0197 -0.0126,0.0358 -0.0184,0.0493 0.038,-0.0845 0.0749,-0.16881 0.11144,-0.25314 -0.0171,0.0282 -0.0362,-0.0203 0.012,-0.0389 -0.002,0.0104 -0.004,0.0181 -0.005,0.0249 0.0165,-0.0383 0.0333,-0.0766 0.0497,-0.11482 -0.0176,0.0442 -0.044,-0.0112 0.008,-0.0313 -0.002,0.0116 -0.004,0.0204 -0.006,0.0275 0.0398,-0.0931 0.0792,-0.18626 0.11804,-0.27908 0.0595,-0.21655 0.13337,-0.4319 0.20248,-0.64488 z m -0.32054,0.92396 c -5.8e-4,8.9e-4 -8.9e-4,0.003 -0.002,0.004 6e-4,-0.002 8.8e-4,-0.003 0.002,-0.004 z m -0.0514,0.11867 c -0.002,0.004 -0.004,0.009 -0.006,0.0141 0.002,-0.004 0.004,-0.008 0.006,-0.0141 z m -0.11774,0.26725 c -5.9e-4,0.002 -0.002,0.004 -0.003,0.005 8.8e-4,-0.002 0.002,-0.003 0.003,-0.005 z m -1.32508,2.21926 c 6.1e-4,0.004 0.0145,-0.0136 0.0446,-0.0571 -0.0148,0.0192 -0.0299,0.038 -0.0446,0.0571 z m -0.30764,0.38792 c -0.3234,0.39896 -0.65969,0.78575 -1.00685,1.16236 0.21991,-0.1973 0.75464,-0.84622 1.00685,-1.16236 z m -5.736577,5.53549 c -0.781475,0.66593 -1.562212,1.33178 -2.323493,2.01418 0.774282,-0.67169 1.550946,-1.34078 2.323493,-2.01418 z m -7.245266,6.0516 c -0.245493,-0.2378 -0.492848,-0.47346 -0.741752,-0.70752 0.247637,0.28879 0.499039,0.57922 0.741752,0.70752 z M 77.669119,110.24858 c -0.0089,-0.0217 -0.01705,-0.0433 -0.02564,-0.0649 -0.03455,-0.0548 -0.0016,0.0141 0.02564,0.0649 z m -0.118047,-0.28154 c -0.0065,-0.0137 -0.01291,-0.0266 -0.01949,-0.0406 -0.0318,-0.0325 0.0324,0.0898 0.01949,0.0406 z m -0.05081,-0.10945 c -0.0085,-0.019 -0.01707,-0.0383 -0.02564,-0.0579 -0.01825,-0.0146 0.01958,0.0598 0.02564,0.0579 z m -0.336795,-0.95282 c -0.0056,-0.0251 -0.01198,-0.0515 -0.01596,-0.0742 -0.01078,-0.03 -0.02024,-0.0592 -0.03039,-0.0889 0.0074,0.0738 -0.03599,-0.0763 -0.02364,-0.0689 -0.01678,-0.0509 -0.03254,-0.10149 -0.04774,-0.15197 -0.005,-0.005 -0.0091,-0.0152 -0.007,-0.0228 -0.06839,-0.23045 -0.121869,-0.46144 -0.170547,-0.71596 h -7.395857 v 1.12276 z m -0.124802,-0.4068 c 0.0022,0.008 0.0048,0.0153 0.007,0.0229 0.007,0.007 0.01442,0.004 0.0025,-0.0319 -0.006,0.002 -0.0084,0.005 -0.0095,0.009 z m 0.0548,0.17485 c 0.0076,0.0229 0.01576,0.046 0.02364,0.0689 -8.62e-4,-0.009 -0.0015,-0.0161 -0.004,-0.0317 -0.01079,-0.0252 -0.01672,-0.0356 -0.01965,-0.0373 z m 29.832735,0.0759 c 0.005,-0.0161 0.0103,-0.0324 0.0152,-0.0486 3e-4,-0.006 8.9e-4,-0.01 8.9e-4,-0.0173 -0.0436,0.0215 -0.0309,0.0689 -0.0165,0.0659 z m 0.0662,-0.22549 c 0.002,-0.005 0.003,-0.0101 0.004,-0.0152 -8.9e-4,-0.005 -0.002,-0.0109 -0.004,-0.0192 -0.0197,0.004 -0.007,0.0299 8.9e-4,0.0344 z m 0.0172,-0.0694 c 0.002,-0.005 0.003,-0.0109 0.004,-0.0165 -8.9e-4,-0.005 -0.002,-0.0102 -0.004,-0.018 -0.0196,0.004 -0.008,0.0297 5.9e-4,0.0344 z m 0.0494,-0.21015 c 0.002,-0.007 0.004,-0.0141 0.004,-0.0211 -8.9e-4,-0.004 -0.002,-0.006 -0.003,-0.0112 -0.0177,0.004 -0.01,0.0245 -0.002,0.0323 z m 0.0163,-0.0703 c 0.002,-0.008 0.004,-0.015 0.005,-0.0228 -8.9e-4,-0.003 -8.9e-4,-0.005 -0.003,-0.009 -0.0167,0.004 -0.0104,0.0228 -0.003,0.0313 h 1.5e-4 z m 0.0164,-0.0712 c 0.002,-0.008 0.004,-0.0154 0.005,-0.0235 -6e-4,-0.003 -6e-4,-0.004 -0.002,-0.006 -0.0158,0.004 -0.0106,0.0204 -0.004,0.0294 z m 0.037,-0.16302 c 0.002,-0.008 0.004,-0.0163 0.005,-0.0243 -8.9e-4,-0.005 -0.002,-0.01 -0.004,-0.0165 -0.0147,0.008 -0.008,0.0305 -8.9e-4,0.0408 z m 0.0167,-0.0771 c 0.002,-0.007 0.004,-0.0148 0.004,-0.0221 -8.9e-4,-0.004 -8.9e-4,-0.005 -0.003,-0.01 -0.0175,0.004 -0.01,0.0243 -0.002,0.0321 z M 76.81807,107.4977 c -0.0012,-0.007 -0.0023,-0.0138 -0.0036,-0.0207 -0.0015,0.007 7.13e-4,0.014 0.0036,0.0207 z m -0.01827,-0.10668 c -8.89e-4,-0.005 -0.0019,-0.0107 -0.0028,-0.0163 -7.73e-4,0.005 8.02e-4,0.0107 0.0028,0.0163 z m -0.03699,-0.21399 c -3.57e-4,-0.002 -5.65e-4,-0.004 -8.89e-4,-0.006 4.2e-5,0.002 5.05e-4,0.004 8.89e-4,0.006 z m -0.01673,-4.56165 c 0.0017,-0.007 0.0029,-0.0127 0.0046,-0.0198 -0.0084,0.004 -0.0077,0.0119 -0.0046,0.0198 z m 0.01873,-0.0797 c 0.002,-0.009 0.0043,-0.0178 0.0063,-0.0264 -3.57e-4,-8.9e-4 -3.57e-4,-0.002 -7.72e-4,-0.004 -0.0107,0.006 -0.0092,0.0187 -0.0055,0.0296 z m 0.01735,-0.0731 c 0.0018,-0.008 0.0041,-0.0173 0.0059,-0.0249 -0.01341,0.004 -0.0108,0.0155 -0.0059,0.0249 z m 0.01674,-0.0708 c 0.0015,-0.006 0.0039,-0.0162 0.0053,-0.0226 -0.01109,0.004 -0.0095,0.0138 -0.0053,0.0226 z m 0.01674,-0.0708 c 0.0012,-0.005 0.0036,-0.0151 0.0049,-0.0205 -0.0091,0.004 -0.0084,0.0124 -0.0049,0.0205 z m 0.01689,-0.0706 c 0.0016,-0.007 0.0028,-0.0118 0.0044,-0.0188 -0.0076,0.004 -0.0072,0.0112 -0.0044,0.0188 z m 0.01689,-0.0703 c 0.0014,-0.006 0.0028,-0.0117 0.0042,-0.0175 -0.0066,0.004 -0.0065,0.0104 -0.0042,0.0175 z m 4.332909,-5.090016 c 0.02636,-0.01174 0.03375,-0.01494 0.06263,-0.02765 0.03212,-0.03192 -0.03504,0.0071 -0.06263,0.02765 z m 0.236863,-0.102385 c 0.01421,-0.0062 0.02822,-0.01201 0.04267,-0.01814 0.007,-0.01956 -0.02563,0.0018 -0.04267,0.01814 z m 0.09072,-0.0385 c 0.0137,-0.0053 0.02591,-0.01129 0.03976,-0.01707 0.0031,-0.01405 -0.02252,0.0018 -0.03976,0.01707 z m 0.153969,-0.06314 c 0.0155,-0.0062 0.03083,-0.01192 0.04636,-0.01814 -0.02172,-5.96e-4 -0.0379,0.008 -0.04636,0.01814 z m 0.952209,-0.283831 c 0.0065,-0.0018 0.01136,-0.0027 0.01826,-0.0036 -0.01645,-0.0062 -0.02063,-0.0027 -0.01826,0.0036 z m 0.0703,-0.01521 c 0.009,-0.0018 0.01155,-0.0027 0.02088,-0.0044 -0.02132,-0.0089 -0.02529,-0.0036 -0.02088,0.0044 z m 0.342477,-0.07309 c 0.0054,-8.89e-4 0.01199,-0.0027 0.01734,-0.0036 -0.01536,-0.0027 -0.01915,1.8e-5 -0.01734,0.0036 z m 0.314691,-0.0562 c 0.0071,-8.89e-4 0.0227,2.94e-4 0.05127,0.0071 -0.01662,0.02161 -0.07253,-0.0036 -0.05127,-0.0071 z m 2.305995,0 c 0.0071,-8.89e-4 0.0227,2.94e-4 0.05127,0.0071 -0.01662,0.02161 -0.07254,-0.0036 -0.05127,-0.0071 z m 14.980387,0 c 0.007,-8.89e-4 0.0227,2.94e-4 0.0513,0.0071 -0.0166,0.02161 -0.0726,-0.0036 -0.0513,-0.0071 z m -14.75473,0.03441 c 0.0059,-8.89e-4 0.01881,5.96e-4 0.04267,0.0071 -0.01299,0.02276 -0.06017,-0.0044 -0.04267,-0.0071 z m 0.104078,0.01734 c 0.0059,-8.89e-4 0.01881,5.96e-4 0.04267,0.0071 -0.01299,0.02276 -0.06016,-0.0044 -0.04267,-0.0071 z m 14.980382,0 c 0.006,-8.89e-4 0.0189,5.96e-4 0.0427,0.0071 -0.013,0.02276 -0.0602,-0.0044 -0.0427,-0.0071 z m -18.61898,0.154734 c 0.0044,-0.0018 0.014,5.95e-4 0.03116,0.0099 -0.01216,0.02925 -0.04461,-0.0062 -0.03116,-0.0099 z m -0.05711,0.01778 c 0.0058,8.89e-4 0.0064,0.0062 -0.0025,0.01992 -0.14362,0.06216 -0.02256,-0.02383 0.0025,-0.01992 z m 14.898097,0.03672 c 0.0036,8.89e-4 -0.0044,0.0089 -0.03281,0.02659 -0.228565,0.08039 0.01556,-0.03219 0.03281,-0.02659 z m -9.479269,0.310703 c 5.65e-4,-0.0027 0.01794,0.0036 0.06632,0.02792 0.0817,0.06945 -0.068,-0.01992 -0.06632,-0.02792 z m 0.155505,0.07078 c -0.0052,-0.0053 0.02384,0.0062 0.118968,0.05246 0.221847,0.134949 -0.103152,-0.03628 -0.118968,-0.05246 z m 8.310612,8.89e-4 c -5.94e-4,0.0027 -0.02183,0.01743 -0.07737,0.0514 -0.309215,0.150528 0.07955,-0.06322 0.07737,-0.0514 z m -8.002676,0.159029 c 0.0015,-0.0071 0.188121,0.07131 0.26173,0.126803 -0.196894,-0.08821 -0.262621,-0.122766 -0.26173,-0.126803 z m 7.64792,0.02196 c -0.27745,0.172358 -0.274328,0.105924 0,0 z m 7.637631,0.102696 c 0.0135,0.0018 0.0458,0.01663 0.0953,0.05433 -0.0884,-0.02392 -0.11789,-0.05727 -0.0953,-0.05433 z m -22.860706,8.89e-4 c -0.140195,0.104839 -0.136694,0.03788 0,0 z m 7.864518,0.01734 c 0.01812,0.0036 0.06159,0.02419 0.128485,0.0706 -0.118597,-0.03859 -0.158689,-0.07718 -0.128485,-0.0706 z m 7.133204,3.02e-4 c -0.185846,0.127115 -0.182561,0.06047 0,0 z m -15.119147,0.05175 c -0.140193,0.104848 -0.136693,0.03788 0,0 z m 8.133003,0.03228 c 0.0025,-0.0036 0.02772,0.0062 0.06816,0.03868 -0.05038,-0.01885 -0.07064,-0.03521 -0.06816,-0.03868 z m 6.830027,0.0018 c -0.09487,0.08332 -0.0908,0.01538 0,0 z m -6.761869,0.03504 c 0.0091,0.0027 0.06188,0.03406 0.192191,0.116968 0.147703,0.122544 -0.219334,-0.125318 -0.192191,-0.116968 z m -8.335787,0.0018 c 0.003,1.6e-4 -0.02225,0.01983 -0.09502,0.07167 -0.465033,0.293746 0.08178,-0.07238 0.09502,-0.07167 z m 15.011079,0.01503 c -0.09487,0.08332 -0.0908,0.01538 0,0 z m -0.09303,0.05051 c -8.89e-4,0.0027 -0.0068,0.0089 -0.01981,0.02045 -0.220018,0.145583 0.02516,-0.03619 0.01981,-0.02045 z m -6.302422,0.105301 c 0.0059,5.96e-4 0.05112,0.02917 0.166863,0.108681 0.151587,0.136096 -0.184598,-0.110877 -0.166863,-0.108681 z m 6.117906,0.01538 c -0.0309,0.06091 -0.373661,0.19185 0,0 z m -15.058359,0.02517 c -0.421416,0.323935 -0.374282,0.230371 0,0 z m 9.153368,0.112362 c -6.23e-4,-0.0071 0.115242,0.05771 0.166096,0.109454 -0.123358,-0.07478 -0.16572,-0.105106 -0.166096,-0.109454 z m 5.696986,0.0027 c -0.209339,0.17635 -0.205284,0.108529 0,0 z m -0.444559,0.322832 c 0.047,-0.03904 -1.030041,0.883095 -1.306657,1.264901 -0.649887,0.698714 0.690025,-0.804773 0.813743,-0.849972 0.336698,-0.282159 0.477253,-0.401929 0.492914,-0.414929 z m 10.212118,0.01165 c -0.0331,-0.04704 0.94561,0.824104 1.18815,1.214553 0.0101,0.04161 -0.5439,-0.638257 -0.75311,-0.809753 -0.30056,-0.271533 -0.42402,-0.389132 -0.43504,-0.4048 z m -25.288283,0.05069 c 0.148089,-0.136575 -0.599869,0.560041 -0.959424,0.984298 -0.425545,0.470603 0.415049,-0.51518 0.465129,-0.528989 0.296038,-0.27164 0.444932,-0.409781 0.494295,-0.455309 z m 26.565923,1.279493 c 0.004,-3.02e-4 0.0928,0.123878 0.33558,0.491382 -0.12084,-0.144043 -0.34361,-0.490795 -0.33558,-0.491382 z m -27.809336,0.05264 c -0.0035,0.009 -0.04122,0.06909 -0.134627,0.212142 -0.478016,0.67355 0.149662,-0.25093 0.134627,-0.212142 z m 14.675355,0.261111 c 0.0047,-0.0036 -0.0068,0.01574 -0.04544,0.07372 -0.296474,0.390521 0.02516,-0.05771 0.04544,-0.07372 z m -1.438983,0.09687 c -2.7e-4,-0.0044 0.01533,0.01236 0.06048,0.06829 0.08386,0.139521 -0.05967,-0.0562 -0.06048,-0.06829 z m 14.926804,0.123261 c 0.002,-0.002 0.0291,0.0372 0.10162,0.15259 0.11044,0.22495 -0.10791,-0.14721 -0.10162,-0.15259 z m -28.487847,0.004 c 0.0014,5.8e-4 2.27e-4,0.006 -0.0046,0.0192 -0.139794,0.21942 -0.0053,-0.0238 0.0046,-0.0192 z m 14.768537,0.0879 c 0.0094,-0.009 -0.04331,0.0734 -0.215218,0.33004 -0.399622,0.54965 0.187039,-0.30262 0.215218,-0.33004 z m -1.034488,0.0178 c 0.0082,0.004 0.121594,0.16416 0.388219,0.56798 -0.235316,-0.32146 -0.398741,-0.5734 -0.388219,-0.56798 z m -13.818631,0.0258 c 8.02e-4,0.003 -0.0039,0.018 -0.01765,0.0524 -0.09186,0.15076 0.01412,-0.0647 0.01765,-0.0524 z m 28.726549,0.12097 c -0.002,-0.008 0.01,0.008 0.0462,0.07 0.079,0.18452 -0.0419,-0.0472 -0.0462,-0.07 z m -28.795935,5.9e-4 c 8.03e-4,0.003 -0.0037,0.0178 -0.0175,0.0522 -0.09186,0.15075 0.01396,-0.0647 0.0175,-0.0522 z m -0.08535,0.15458 c -0.0033,0.0114 -0.03112,0.0726 -0.0987,0.21399 -0.332683,0.62431 0.113132,-0.26337 0.0987,-0.21399 z m 14.614721,0.26143 c 0.0012,0.002 -8.89e-4,0.0119 -0.0088,0.035 -0.06698,0.10109 0.0029,-0.0433 0.0088,-0.035 z m 14.941224,1.13365 c 0.003,6e-4 0.009,0.0112 0.0205,0.0382 0.0231,0.14614 -0.0321,-0.0405 -0.0205,-0.0382 z m 0.0596,0.18099 c 0.0249,0.076 -0.0333,0.007 0,0 z m 0.0347,0.12142 c 0.0249,0.076 -0.0333,0.007 0,0 z m 0.0173,0.0694 c 0.0249,0.076 -0.0333,0.007 0,0 z m 0.0173,0.0694 c 0.0249,0.076 -0.0333,0.007 0,0 z m 0.0173,0.0694 c 0.0249,0.076 -0.0333,0.007 0,0 z m 0.0173,0.0693 c 0.0249,0.076 -0.0333,0.007 0,0 z m 0.0171,0.0683 c 0.0282,0.0955 -0.0303,0.0173 0,0 z m 0.0176,0.0878 c 0.0248,0.076 -0.0333,0.007 0,0 z m 0.0173,0.0867 c 0.0249,0.076 -0.0334,0.007 0,0 z m -30.602568,0.17223 c 0.02814,0.0955 -0.03035,0.0173 0,0 z m 30.636798,0 c 0.0281,0.0955 -0.0303,0.0173 0,0 z m 0.0173,0.10408 c 0.0282,0.0955 -0.0303,0.0173 0,0 z m -30.688376,0.11298 c 0.02566,0.11428 -0.02876,0.0221 0,0 z m 30.706346,0 c 0.0257,0.11428 -0.0287,0.0221 0,0 z m -30.741039,0.24239 c 0.02697,0.1343 -0.0279,0.0258 0,0 z m -0.01735,0.15582 c 0.02902,0.15537 -0.02878,0.028 0,0 z m 0.08674,3.19081 c 0.02566,0.11427 -0.02876,0.0222 0,0 z m 0.05204,0.38147 c 0.02566,0.11427 -0.02876,0.0222 0,0 z m 30.515069,0.11236 c 0.0282,0.0955 -0.0303,0.0173 0,0 z m -30.376598,0.67705 c -0.03338,0.007 0.02484,0.076 0,0 z m 0.01704,0.0683 c -0.03035,0.0173 0.02813,0.0955 0,0 z m 0.035,0.17438 c -0.03338,0.007 0.02484,0.076 0,0 z m 0.01735,0.0694 c -0.03337,0.007 0.02483,0.076 0,0 z m 0.01735,0.0694 c -0.03338,0.007 0.02484,0.076 0,0 z m 0.05204,0.20801 c -0.03337,0.007 0.02484,0.076 0,0 z m 0.195723,0.75602 c -0.0027,3e-4 -6.25e-4,0.0141 0.01136,0.0528 0.04736,0.0664 -0.0033,-0.0538 -0.01136,-0.0528 z m 0.156577,0.39605 c 0.0019,-8.8e-4 0.0075,0.004 0.01934,0.0186 0.03824,0.10393 -0.02728,-0.0135 -0.01934,-0.0186 z m 29.266598,0.004 c -0.0141,0.0969 -0.0607,0.0236 0,0 z m -28.937016,0.77368 c -3.27e-4,-0.005 0.03305,0.055 0.126029,0.23272 0.307175,0.64472 -0.124913,-0.21363 -0.126029,-0.23272 z m 28.605896,0.002 c -0.004,0.014 -0.0359,0.0821 -0.10961,0.23671 -0.34524,0.6596 0.13001,-0.29715 0.10961,-0.23671 z m -28.322827,0.54986 c -0.0014,-0.008 0.01008,0.008 0.0462,0.0702 0.07898,0.18452 -0.04185,-0.0474 -0.0462,-0.0702 z m 28.039447,3e-4 c 3e-4,0.004 -0.007,0.0239 -0.0264,0.0698 -0.11678,0.20081 0.0251,-0.0865 0.0264,-0.0698 z m -27.952869,0.15566 c -5.05e-4,-0.005 0.0091,0.006 0.03761,0.0528 0.05613,0.13839 -0.03611,-0.0358 -0.03761,-0.0528 z m 27.865989,5.9e-4 c 8.9e-4,0.003 -0.004,0.0177 -0.0176,0.0522 -0.0919,0.15076 0.0141,-0.0647 0.0176,-0.0522 z m -0.0643,0.11774 c 0.003,5.9e-4 -0.0235,0.049 -0.0992,0.1816 -0.27507,0.42654 0.0909,-0.18341 0.0992,-0.1816 z m -27.728753,0.01 c -0.0014,-0.008 0.01569,0.0164 0.06801,0.1027 0.108266,0.22933 -0.0636,-0.0796 -0.06801,-0.1027 z m 0.126031,0.21354 c 0.0038,8.9e-4 0.01997,0.0221 0.05726,0.0799 0.0301,0.0928 -0.06883,-0.0833 -0.05726,-0.0799 z m 27.387502,0.13431 c 0.002,6e-4 2.3e-4,0.006 -0.004,0.0193 -0.13981,0.21942 -0.005,-0.024 0.004,-0.0193 z m -27.30077,0.004 c 0.0038,8.9e-4 0.01997,0.0223 0.05726,0.0799 0.0301,0.0928 -0.06883,-0.0834 -0.05726,-0.0799 z m 27.21664,0.12848 c 0.0111,-0.0129 -0.0155,0.0332 -0.11696,0.1942 -0.28943,0.41337 0.0836,-0.1556 0.11696,-0.1942 z m -27.139427,0.01 c -0.0079,-0.0157 0.02379,0.0245 0.132325,0.17562 0.271509,0.42294 -0.108529,-0.12843 -0.132325,-0.17562 z m 0.24285,0.35246 c -0.0035,-0.009 0.01228,0.009 0.06478,0.0789 0.127642,0.20757 -0.05443,-0.0533 -0.06478,-0.0789 z m 26.654807,1.6e-4 c -5.9e-4,0.004 -0.0132,0.0269 -0.045,0.0788 -0.1701,0.22643 0.0481,-0.0975 0.045,-0.0788 z m -26.53415,0.18037 c -0.0047,-0.0101 0.03061,0.0309 0.141995,0.17146 0.245528,0.35047 -0.12792,-0.14099 -0.141995,-0.17146 z m 0.419077,0.55339 c -0.107356,-0.13455 0.546088,0.65089 0.92903,1.06397 -0.166812,-0.1762 -0.332444,-0.35352 -0.495984,-0.53314 -0.265881,-0.32532 -0.395723,-0.48405 -0.433046,-0.53083 z m 1.021749,1.16221 c 3.172926,3.2387 6.765537,6.02499 10.092838,9.10041 -0.02516,-0.0146 -0.05015,-0.028 -0.07491,-0.0385 -3.269284,-3.09559 -6.909076,-5.80071 -10.017948,-9.06187 z"
       id="path4516"
       inkscape:connector-curvature="0"
       sodipodi:nodetypes="cccccccccccccccccccccccccccccccccccccccccccccccccccccccccccccccccccccccccccccccccccccccccccccccccccccccccccccccccccccccccccccccccccccccccccccccccccccccccccccccccccccccccccccccccccccccccccccccccccccccccccccccccccccccccccccccccccccccccccccccccccccccccccccccccccccccccccccccccccccccccccccccccccccccccccccccccccccccccccccccccccccccccccccccccccccccccccccccccccccccccccccccccccccccccccccccccccccccccccccccccccccccccccccccccccccccccccccccccccccccccccccccccccccccccccccccccccccccccccccccccccccccccccccccccccccccccccccccccccccccccccccccccccccccccccccccccccccccccccccccccccccccccccccccccccccccccccccccccccccccccccccccccccccccccccccccccccccccccccccccccccccccccccccccccccccccccccccccccccccccccccccccccccccccccccccccccccccccccccccccccccccccccccccccccccccccccccccc" />
  </g>
</svg>
